<?xml version="1.0" encoding="utf-8"?>
<!-- Generator: Adobe Illustrator 16.0.0, SVG Export Plug-In . SVG Version: 6.00 Build 0)  -->
<!DOCTYPE svg PUBLIC "-//W3C//DTD SVG 1.1//EN" "http://www.w3.org/Graphics/SVG/1.1/DTD/svg11.dtd">
<svg version="1.1" id="Layer_1" xmlns="http://www.w3.org/2000/svg" xmlns:xlink="http://www.w3.org/1999/xlink" x="0px" y="0px"
	 width="512px" height="291.464px" viewBox="0 0 512 291.464" enable-background="new 0 0 512 291.464" xml:space="preserve">
<polygon opacity="0.5" fill="#231F20" points="488.146,291.464 5.725,291.464 29.58,81.501 512,81.501 "/>
<polygon fill="#EB2185" points="482.42,285.739 0,285.739 23.853,75.776 506.274,75.776 "/>
<g>
	<path fill="#FFFFFF" d="M107.67,173.041c-4.601,17.795-18.957,26.692-43.068,26.778L59.53,245.25
		c-0.13,1.247-0.773,1.935-2.02,1.977l-16.763,0.903c-1.16-0.13-1.806-0.603-1.806-1.548l13.925-121.122
		c0.174-1.16,0.862-1.805,2.063-1.891c9.93-0.901,19.516-1.333,28.584-1.333c18.051,0,27.078,8.683,27.078,25.96
		C110.591,157.655,109.646,165.95,107.67,173.041z M71.135,140.934l-4.557,40.403c9.242,0,15.475-1.933,18.698-5.76
		c3.181-3.868,4.772-11.304,4.772-22.437c0-4.254-1.119-7.435-3.439-9.456c-2.277-2.063-5.244-3.051-8.77-3.051
		C74.229,140.634,72.038,140.763,71.135,140.934z"/>
	<path fill="#FFFFFF" d="M160.233,124.902l9.329,120.563c0,1.203-0.645,1.891-2.063,1.978l-16.72,0.688
		c-1.117,0-1.677-0.517-1.677-1.548l-1.204-26.435l-18.181,0.732l-6.018,24.671c-0.171,0.73-0.387,1.247-0.603,1.503
		c-0.298,0.301-0.773,0.474-1.461,0.517l-16.547,0.56c-1.119,0-1.634-0.517-1.634-1.548l35.161-121.122
		c0.386-1.16,1.115-1.848,2.147-1.891l17.623-0.602C159.504,123.013,160.105,123.614,160.233,124.902z M145.104,157.869
		l-11.218,45.948l13.281-0.474L145.104,157.869z"/>
	<path fill="#FFFFFF" d="M249.034,245.853c0,1.117-0.732,1.59-2.15,1.59l-18.008,0.688c-0.817-0.043-1.418-0.56-1.806-1.548
		l-20.073-50.89l-5.63,49.858c-0.171,1.29-0.816,1.977-1.976,2.02l-16.763,0.56c-1.163-0.13-1.763-0.603-1.763-1.548l13.882-120.52
		c0.087-0.946,0.343-1.589,0.688-1.935c0.388-0.342,3.223-0.772,8.514-1.246c5.286-0.429,12.333-0.645,21.144-0.645
		c8.811,0,15.603,2.32,20.373,7.005c4.815,4.686,7.177,10.66,7.177,18.052c0,7.351-0.857,13.84-2.664,19.47
		c-1.762,5.674-4.686,10.745-8.724,15.173c-4.041,4.513-9.111,7.866-15.172,10.014l22.736,52.953
		C248.947,245.25,249.034,245.551,249.034,245.853z M213.186,140.934l-4.512,39.759c9.885-0.56,16.676-5.071,20.416-13.453
		c2.063-4.6,3.053-9.241,3.053-13.969c0-4.728-0.947-8.038-2.966-9.972c-1.936-1.892-4.73-2.837-8.384-2.837
		C217.055,140.462,214.561,140.634,213.186,140.934z"/>
	<path fill="#FFFFFF" d="M309.423,124.902l9.325,120.563c0,1.203-0.688,1.891-2.063,1.978l-16.72,0.688
		c-1.115,0-1.674-0.517-1.674-1.548l-1.246-26.435l-18.183,0.732l-5.975,24.671c-0.17,0.73-0.386,1.247-0.645,1.503
		c-0.258,0.301-0.771,0.474-1.418,0.517l-16.591,0.56c-1.117,0-1.59-0.517-1.59-1.548l35.117-121.122
		c0.387-1.16,1.115-1.848,2.193-1.891l17.623-0.602C308.691,123.013,309.294,123.614,309.423,124.902z M294.294,157.869
		l-11.261,45.948l13.324-0.474L294.294,157.869z"/>
	<path fill="#FFFFFF" d="M343.29,124.086c0.216-0.299,2.925-0.645,8.037-1.117c5.116-0.515,12.208-0.73,21.148-0.73
		c8.898,0,15.775,2.536,20.588,7.737c4.814,5.158,7.218,12.206,7.218,21.19c0,16.892-1.889,36.404-5.671,58.411
		c-2.063,11.69-5.332,20.415-9.843,26.176c-4.169,5.201-10.702,8.639-19.601,10.272c-3.998,0.73-8.897,1.16-14.612,1.375
		l-19.943,0.73c-1.205-0.043-1.807-0.56-1.807-1.548l13.925-121.122C342.775,124.774,342.991,124.344,343.29,124.086z M361,140.934
		l-9.714,87.167c7.951-0.732,13.452-2.277,16.503-4.643c3.054-2.407,5.245-6.962,6.448-13.711
		c1.247-6.704,2.451-15.902,3.611-27.507c1.247-11.692,1.847-21.191,1.847-28.583c0-4.384-1.072-7.694-3.223-9.8
		c-2.107-2.148-4.987-3.223-8.684-3.223C364.136,140.634,361.903,140.763,361,140.934z"/>
	<path fill="#FFFFFF" d="M455.256,193.028l-24.928,0.946l-3.698,32.837l30.647-1.031c1.375,0.044,2.104,0.732,2.104,2.064
		l-2.104,16.633c-0.128,1.074-0.775,1.762-2.063,2.02l-49.299,1.634c-1.162,0-1.765-0.517-1.765-1.548l13.928-121.122
		c0.128-1.16,0.859-1.805,2.019-1.891l43.884-1.505c1.333,0.172,2.021,0.903,2.021,2.148l-2.021,16.591
		c-0.171,1.333-0.818,2.063-2.063,2.15l-25.789,0.729l-3.438,29.83l24.671-0.903c1.375,0.044,2.063,0.732,2.063,2.063l-2.063,16.333
		C457.149,192.255,456.416,192.899,455.256,193.028z"/>
</g>
<polygon fill="#181818" points="207.341,99.114 54.371,100.146 63.786,1.032 216.754,0 "/>
<g>
	<g>
		<path fill="#FFFFFF" d="M105.629,29.053l-7.358-0.745c-2.658,0-4.716,0.644-6.176,1.928c-1.548,1.431-2.687,4.183-3.417,8.257
			c-0.73,4.073-1.431,9.49-2.102,16.25c-0.672,6.76-1.008,11.636-1.008,14.629s0.482,5.11,1.446,6.352
			c0.963,1.241,2.109,1.861,3.438,1.861c1.329,0,2.402-0.015,3.22-0.044l2.891-24.835c0.116-0.642,0.496-0.992,1.139-1.052
			l8.235-0.306c0.788,0.029,1.183,0.379,1.183,1.051l-3.679,32.851c-0.117,0.643-0.511,1.007-1.183,1.095
			c-3.884,0.584-8.615,0.876-14.191,0.876c-6.688,0-10.98-3.226-12.877-9.68c-0.526-1.781-0.789-3.548-0.789-5.3
			s0.058-3.825,0.175-6.22c0.351-8.585,1.372-17.491,3.066-26.719c1.139-6.424,2.541-10.935,4.205-13.534
			c1.752-2.716,3.854-4.613,6.307-5.694c3.066-1.343,6.351-2.015,9.855-2.015c3.504,0,5.84,0.096,7.008,0.285
			c1.167,0.19,1.825,0.3,1.971,0.328c0.35,0.117,0.525,0.481,0.525,1.095l-0.964,8.147
			C106.432,28.674,106.125,29.053,105.629,29.053z"/>
		<path fill="#FFFFFF" d="M133.792,19.548l-7.49,65.964c-0.087,0.701-0.467,1.066-1.139,1.095l-9.023,0.307
			c-0.643,0-0.964-0.277-0.964-0.832l7.578-66.271c0.116-0.613,0.496-0.948,1.139-1.007l8.76-0.307
			C133.413,18.527,133.792,18.877,133.792,19.548z"/>
		<path fill="#FFFFFF" d="M167.87,57.217l-14.016,0.481L150.7,85.336c-0.117,0.673-0.497,1.037-1.139,1.096l-9.023,0.481
			c-0.643,0-0.964-0.277-0.964-0.832l7.622-66.271c0.116-0.613,0.496-0.948,1.139-1.007l24.003-1.008
			c0.729,0.088,1.095,0.481,1.095,1.183l-1.095,9.066c-0.088,0.76-0.468,1.154-1.139,1.183l-14.104,0.482l-1.927,16.819
			l13.841-0.482c0.759,0.03,1.139,0.41,1.139,1.14l-1.139,8.935C168.891,56.794,168.512,57.159,167.87,57.217z"/>
		<path fill="#FFFFFF" d="M184.733,87.22c-1.898,0-3.438-0.605-4.621-1.817s-1.774-2.76-1.774-4.644
			c0-1.883,0.773-3.569,2.321-5.059c1.547-1.489,3.278-2.233,5.19-2.233c1.912,0,3.453,0.599,4.621,1.796
			c1.167,1.197,1.752,2.752,1.752,4.664c0,1.913-0.774,3.607-2.321,5.081C188.353,86.483,186.63,87.22,184.733,87.22z
			 M198.223,17.49l-6.526,49.013c-0.087,0.73-0.453,1.11-1.095,1.139l-7.665,0.307c-0.643-0.028-0.964-0.335-0.964-0.92
			l4.687-49.275c0.028-0.613,0.408-0.964,1.139-1.051l9.33-0.307C197.858,16.424,198.223,16.789,198.223,17.49z"/>
	</g>
</g>
</svg>
